<svg width="171" height="230" fill="none" xmlns="http://www.w3.org/2000/svg"><path d="M125.5 0h-80v80h80V0z" fill="#BC85F3"/><path d="M118.796 6.704H52.205v66.591h66.591V6.705z" fill="#252653"/><path fill-rule="evenodd" clip-rule="evenodd" d="M77.663 49.183l2.787 9.268h7.826L77.162 21.148c-.02-.067-.073-.114-.181-.114l-9.196-.026c-.357 0-.367.187-.336.54.113 1.285.051 2.003-.212 3.007l-9.853 33.902 7.423-.01 2.31-9.27 10.546.006zm-1.333-6.72h-7.62l3.696-15.016 3.924 15.016zm21.075 3.708l14.365.021c.905-1.165 1.07-3.355 1.044-4.79-.098-5.826-3.933-11.401-10.86-11.438-11.631-.067-13.833 14.73-9.874 23.265 1.246 2.684 3.748 4.39 6.684 5.202 1.339.369 2.761.556 4.198.561 2.843.01 5.733-.681 8.054-2.012.036-.021.098-.021.103-.063v-.166l-.005-4.822c0-.218-.166-.343-.414-.265-2.936.89-12.882 3.73-13.342-5.222-.005-.068-.02-.27.047-.27zm7.201-4.832h-7.315c.036-3.91 1.82-6.132 4.575-6.142 2.502-.01 4.094 1.737 4.171 6.049v.093h-1.431z" fill="#BC85F3"/><path d="M70.154 120l-.725-2.379h-3.643L65.06 120h-2.283l3.527-10.035h2.591L72.437 120h-2.283zm-1.23-4.156l-.725-2.324a25.642 25.642 0 00-.185-.595 62.273 62.273 0 00-.225-.745 18.917 18.917 0 01-.178-.663 70.859 70.859 0 01-.574 2.003l-.718 2.324h2.604zm7.314 4.293c-.853 0-1.548-.333-2.085-.998-.534-.67-.8-1.652-.8-2.947 0-1.308.271-2.296.813-2.966.543-.675 1.251-1.012 2.126-1.012.365 0 .686.05.964.15.278.101.517.235.718.404.205.168.378.357.52.567h.068c-.028-.146-.062-.36-.103-.643a6.981 6.981 0 01-.054-.881v-2.448h2.091V120h-1.6l-.403-.991h-.088a2.577 2.577 0 01-.5.574 2.23 2.23 0 01-.704.403 2.78 2.78 0 01-.963.151zm.731-1.661c.57 0 .97-.169 1.203-.506.237-.342.362-.855.376-1.538v-.226c0-.743-.114-1.31-.342-1.702-.228-.397-.651-.595-1.271-.595-.46 0-.82.198-1.08.595-.26.396-.39.968-.39 1.716 0 .747.13 1.31.39 1.688.264.378.635.568 1.114.568zm12.933-2.311c0 .638-.086 1.203-.26 1.695-.168.493-.416.91-.745 1.251a3.123 3.123 0 01-1.175.766 4.33 4.33 0 01-1.545.26 4.11 4.11 0 01-1.484-.26 3.285 3.285 0 01-1.169-.766 3.556 3.556 0 01-.765-1.251c-.178-.492-.267-1.057-.267-1.695 0-.848.15-1.565.451-2.153a3.1 3.1 0 011.285-1.34c.556-.305 1.22-.458 1.99-.458.715 0 1.349.153 1.9.458.556.305.991.752 1.306 1.34.319.588.478 1.305.478 2.153zm-5.284 0c0 .501.055.923.164 1.265.11.341.28.599.513.772.232.173.535.26.91.26.368 0 .667-.087.895-.26.232-.173.4-.431.506-.772.109-.342.163-.764.163-1.265 0-.506-.054-.925-.163-1.258-.105-.337-.274-.59-.506-.759-.233-.168-.536-.252-.91-.252-.551 0-.952.189-1.203.567-.246.378-.369.946-.369 1.702zm9.372-6.802v2.475c0 .287-.01.572-.027.854a7.21 7.21 0 01-.055.657h.082c.2-.315.474-.581.82-.8.347-.223.796-.335 1.347-.335.857 0 1.552.335 2.085 1.005.533.67.8 1.652.8 2.946 0 .87-.123 1.602-.37 2.194-.245.588-.59 1.033-1.032 1.333-.442.297-.954.445-1.538.445-.56 0-1.002-.101-1.326-.301a3.051 3.051 0 01-.786-.677h-.144l-.348.841h-1.593v-10.637h2.085zm1.497 4.519c-.365 0-.654.075-.868.225-.214.151-.372.376-.472.677-.096.301-.148.681-.157 1.142v.225c0 .743.11 1.313.328 1.709.219.392.618.588 1.196.588.429 0 .768-.198 1.019-.594.255-.397.383-.969.383-1.716 0-.748-.128-1.311-.383-1.689-.255-.378-.604-.567-1.046-.567zm8.709-1.668c.706 0 1.315.137 1.825.41.51.269.905.661 1.183 1.176.278.515.417 1.144.417 1.887v1.011h-4.929c.023.588.198 1.051.526 1.388.333.333.793.499 1.381.499.488 0 .934-.05 1.34-.15a6.849 6.849 0 001.251-.452v1.614a4.974 4.974 0 01-1.19.41c-.41.086-.909.13-1.497.13-.765 0-1.444-.142-2.037-.424a3.162 3.162 0 01-1.387-1.292c-.333-.579-.499-1.308-.499-2.188 0-.893.15-1.636.451-2.228.305-.597.729-1.044 1.271-1.34.543-.301 1.174-.451 1.894-.451zm.013 1.483c-.405 0-.742.13-1.011.39-.265.26-.417.668-.458 1.224h2.925a2.062 2.062 0 00-.17-.828 1.289 1.289 0 00-.479-.574c-.21-.141-.478-.212-.807-.212zM48.009 139l-.724-2.379h-3.643L42.917 139h-2.283l3.527-10.035h2.591L50.293 139H48.01zm-1.23-4.156l-.724-2.324a25.568 25.568 0 00-.185-.595 66.18 66.18 0 00-.225-.745 18.943 18.943 0 01-.178-.663 66.714 66.714 0 01-.574 2.003l-.718 2.324h2.604zm9.12-1.921h-1.806V139H52.01v-6.077h-1.15v-1.005l1.149-.561v-.56c0-.652.109-1.158.328-1.518.223-.364.535-.619.936-.765.406-.151.884-.226 1.436-.226.405 0 .774.034 1.107.103.333.063.604.136.814.218l-.534 1.532a5.773 5.773 0 00-.52-.137 3.014 3.014 0 00-.642-.062c-.291 0-.505.089-.642.267-.132.173-.199.396-.199.67v.478h1.805v1.566zm4.702 4.553c.228 0 .449-.023.663-.069a6.22 6.22 0 00.65-.171v1.552a3.86 3.86 0 01-.834.246 5.257 5.257 0 01-1.08.103c-.456 0-.866-.073-1.231-.219a1.751 1.751 0 01-.855-.772c-.205-.37-.307-.882-.307-1.539v-3.684h-.998v-.882l1.148-.697.602-1.614h1.333v1.627h2.14v1.566h-2.14v3.684c0 .292.082.511.246.657.169.141.39.212.663.212zm6.296-6.262c.706 0 1.314.137 1.825.41.51.269.904.661 1.183 1.176.278.515.416 1.144.416 1.887v1.011h-4.928c.023.588.198 1.051.526 1.388.333.333.793.499 1.381.499.488 0 .934-.05 1.34-.15a6.843 6.843 0 001.25-.452v1.614a4.977 4.977 0 01-1.189.41c-.41.086-.909.13-1.497.13-.765 0-1.444-.142-2.037-.424a3.165 3.165 0 01-1.388-1.292c-.332-.579-.498-1.308-.498-2.188 0-.893.15-1.636.45-2.228.306-.597.73-1.044 1.272-1.34.542-.301 1.174-.451 1.894-.451zm.013 1.483c-.405 0-.742.13-1.011.39-.265.26-.417.668-.458 1.224h2.925a2.066 2.066 0 00-.17-.828 1.285 1.285 0 00-.479-.574c-.21-.141-.478-.212-.807-.212zm9.652-1.483c.105 0 .226.007.363.02.141.009.255.023.341.041l-.157 1.955a1.308 1.308 0 00-.294-.047 2.893 2.893 0 00-1.107.082c-.25.068-.476.18-.677.335-.2.15-.36.351-.478.601-.114.246-.171.549-.171.909V139h-2.085v-7.643h1.579l.307 1.286h.103a3.2 3.2 0 01.56-.711c.228-.219.486-.392.773-.52a2.26 2.26 0 01.943-.198zM88.771 139h-5.756v-9.994h5.756v1.736h-3.637v2.195h3.384v1.736h-3.384v2.577h3.637V139zm6.432-6.077h-1.805V139h-2.084v-6.077h-1.149v-1.005l1.149-.561v-.56c0-.652.109-1.158.328-1.518.223-.364.535-.619.936-.765.406-.151.884-.226 1.436-.226.405 0 .775.034 1.107.103.333.063.604.136.814.218l-.534 1.532a5.773 5.773 0 00-.52-.137 3.014 3.014 0 00-.642-.062c-.291 0-.505.089-.642.267-.132.173-.198.396-.198.67v.478h1.804v1.566zm5.421 0h-1.805V139h-2.085v-6.077h-1.148v-1.005l1.148-.561v-.56c0-.652.11-1.158.329-1.518.223-.364.535-.619.936-.765.406-.151.884-.226 1.436-.226.405 0 .774.034 1.107.103.333.063.604.136.814.218l-.534 1.532a5.708 5.708 0 00-.519-.137 3.017 3.017 0 00-.643-.062c-.291 0-.506.089-.642.267-.133.173-.199.396-.199.67v.478h1.805v1.566zm4.628-1.709c.706 0 1.315.137 1.825.41.51.269.905.661 1.183 1.176.278.515.417 1.144.417 1.887v1.011h-4.929c.023.588.198 1.051.526 1.388.333.333.793.499 1.381.499.488 0 .934-.05 1.34-.15a6.822 6.822 0 001.251-.452v1.614a4.974 4.974 0 01-1.19.41c-.41.086-.909.13-1.497.13-.765 0-1.444-.142-2.037-.424a3.162 3.162 0 01-1.387-1.292c-.333-.579-.499-1.308-.499-2.188 0-.893.15-1.636.451-2.228.305-.597.729-1.044 1.271-1.34.543-.301 1.174-.451 1.894-.451zm.013 1.483c-.405 0-.742.13-1.011.39-.265.26-.417.668-.458 1.224h2.925a2.062 2.062 0 00-.17-.828 1.289 1.289 0 00-.479-.574c-.21-.141-.478-.212-.807-.212zm8.49 6.44c-.756 0-1.401-.137-1.934-.41-.533-.278-.939-.707-1.217-1.286-.278-.578-.417-1.319-.417-2.221 0-.935.157-1.696.472-2.283.319-.593.758-1.028 1.319-1.306.565-.278 1.219-.417 1.962-.417.529 0 .984.052 1.367.157.388.1.725.221 1.012.362l-.615 1.614a9.831 9.831 0 00-.916-.322 2.9 2.9 0 00-.848-.129c-.365 0-.668.086-.909.259-.242.169-.422.424-.54.766-.119.342-.178.77-.178 1.285 0 .506.064.925.191 1.258.128.333.313.581.554.745.242.159.536.239.882.239.433 0 .818-.057 1.155-.171.337-.118.666-.282.985-.492v1.784a3.417 3.417 0 01-1.005.431c-.347.091-.786.137-1.32.137zm7.602-1.661c.228 0 .449-.023.663-.069.219-.045.435-.102.649-.171v1.552c-.223.1-.501.182-.834.246a5.253 5.253 0 01-1.08.103 3.28 3.28 0 01-1.23-.219 1.753 1.753 0 01-.855-.772c-.205-.37-.307-.882-.307-1.539v-3.684h-.999v-.882l1.149-.697.601-1.614h1.334v1.627h2.139v1.566h-2.139v3.684c0 .292.082.511.246.657.168.141.389.212.663.212zm8.476-.746c0 .52-.123.96-.369 1.32-.242.355-.604.626-1.087.813-.483.183-1.085.274-1.805.274-.533 0-.991-.034-1.374-.103a5.6 5.6 0 01-1.148-.342v-1.722c.414.187.859.342 1.333.465.478.118.898.177 1.258.177.405 0 .695-.059.868-.177a.561.561 0 00.266-.479.567.567 0 00-.109-.342c-.068-.105-.219-.221-.451-.348a11.168 11.168 0 00-1.094-.513 7.304 7.304 0 01-1.183-.608 2.066 2.066 0 01-.683-.725c-.146-.283-.219-.64-.219-1.073 0-.707.274-1.238.82-1.593.552-.36 1.288-.54 2.208-.54.474 0 .926.048 1.354.143.433.096.877.249 1.333.458l-.629 1.504a10.72 10.72 0 00-1.073-.403 3.366 3.366 0 00-1.019-.157c-.305 0-.535.041-.69.123a.4.4 0 00-.233.376c0 .123.039.232.117.328.082.096.237.203.464.321.233.114.572.262 1.019.445.433.177.809.364 1.128.56.319.192.565.431.738.718.173.282.26.649.26 1.1z" fill="#828282"/><path d="M7.415 228.621c-.63.491-1.275.505-1.933.041-.657-.464-.877-1.078-.657-1.842l2.343-7.571-5.962-4.216c-.657-.464-.856-1.078-.595-1.842.26-.764.787-1.146 1.582-1.146h7.36l2.384-7.858c.137-.382.35-.676.638-.881A1.57 1.57 0 0113.5 203c.329 0 .637.102.924.306.288.205.5.499.638.881l2.385 7.858h7.359c.795 0 1.323.382 1.584 1.146.26.764.06 1.378-.597 1.842l-5.962 4.216 2.344 7.571c.219.764 0 1.378-.658 1.842-.658.464-1.302.45-1.933-.041l-6.084-4.625-6.085 4.625zm36 0c-.63.491-1.275.505-1.933.041-.657-.464-.877-1.078-.657-1.842l2.343-7.571-5.962-4.216c-.657-.464-.856-1.078-.595-1.842.26-.764.787-1.146 1.582-1.146h7.36l2.384-7.858c.137-.382.35-.676.638-.881A1.57 1.57 0 0149.5 203c.328 0 .637.102.924.306.288.205.5.499.638.881l2.385 7.858h7.359c.795 0 1.323.382 1.584 1.146.26.764.06 1.378-.597 1.842l-5.962 4.216 2.344 7.571c.219.764 0 1.378-.658 1.842-.658.464-1.302.45-1.933-.041l-6.084-4.625-6.085 4.625zm36 0c-.63.491-1.275.505-1.933.041-.657-.464-.877-1.078-.657-1.842l2.343-7.571-5.962-4.216c-.657-.464-.856-1.078-.595-1.842.26-.764.787-1.146 1.582-1.146h7.36l2.384-7.858c.137-.382.35-.676.638-.881A1.57 1.57 0 0185.5 203c.329 0 .637.102.924.306.288.205.5.499.638.881l2.385 7.858h7.359c.795 0 1.323.382 1.584 1.146.26.764.06 1.378-.597 1.842l-5.962 4.216 2.344 7.571c.219.764 0 1.378-.658 1.842-.658.464-1.302.45-1.933-.041l-6.084-4.625-6.085 4.625zm36 0c-.631.491-1.275.505-1.933.041-.657-.464-.877-1.078-.657-1.842l2.343-7.571-5.962-4.216c-.657-.464-.856-1.078-.595-1.842.26-.764.787-1.146 1.582-1.146h7.36l2.384-7.858c.137-.382.35-.676.638-.881a1.57 1.57 0 01.925-.306c.328 0 .637.102.924.306.288.205.501.499.638.881l2.385 7.858h7.359c.795 0 1.323.382 1.584 1.146.259.764.06 1.378-.597 1.842l-5.962 4.216 2.344 7.571c.219.764 0 1.378-.658 1.842-.658.464-1.302.45-1.933-.041l-6.084-4.625-6.085 4.625z" fill="#070707"/><path d="M151.415 228.621c-.631.491-1.275.505-1.933.041-.657-.464-.877-1.078-.657-1.842l2.343-7.571-5.962-4.216c-.657-.464-.856-1.078-.595-1.842.26-.764.787-1.146 1.582-1.146h7.36l2.384-7.858c.137-.382.35-.676.638-.881a1.57 1.57 0 01.925-.306c.328 0 .637.102.924.306.288.205.501.499.638.881l2.385 7.858h7.359c.795 0 1.323.382 1.584 1.146.259.764.06 1.378-.597 1.842l-5.962 4.216 2.344 7.571c.219.764 0 1.378-.658 1.842-.658.464-1.302.45-1.933-.041l-6.084-4.625-6.085 4.625z" fill="#E5E5E5"/></svg>