<svg width="171" height="230" fill="none" xmlns="http://www.w3.org/2000/svg"><path d="M125.5 0h-80v80h80V0z" fill="#FF7C00"/><path d="M118.796 6.704H52.205v66.591h66.591V6.705z" fill="#261300"/><path d="M105.459 32.045h-6.317a.296.296 0 00-.295.296v26.095c0 .164.132.296.295.296h6.317a.295.295 0 00.294-.296V32.34a.295.295 0 00-.294-.296zm-3.159-3.527c2.027 0 3.67-1.58 3.67-3.531 0-1.95-1.643-3.532-3.67-3.532s-3.67 1.581-3.67 3.532c0 1.95 1.643 3.531 3.67 3.531z" fill="#FF7C00"/><path fill-rule="evenodd" clip-rule="evenodd" d="M85.195 49.401l2.59 8.63c.134.509.398.634.755.629h6.632c.511.005.548-.151.47-.495L84.688 21.403c-.02-.067-.072-.114-.175-.114l-9.186-.026c-.362 0-.367.187-.336.54.114 1.28.052 1.998-.217 3.002l-9.698 33.381c-.103.317-.077.474.336.479l6.26-.005c.662-.021.698-.203.812-.536l2.17-8.723h10.541zm-1.339-6.71h-7.604l3.686-15 3.918 15z" fill="#FF7C00"/><path d="M70.154 120l-.725-2.379h-3.643L65.06 120h-2.283l3.527-10.035h2.591L72.437 120h-2.283zm-1.23-4.156l-.725-2.324a25.642 25.642 0 00-.185-.595 62.273 62.273 0 00-.225-.745 18.917 18.917 0 01-.178-.663 70.859 70.859 0 01-.574 2.003l-.718 2.324h2.604zm7.314 4.293c-.853 0-1.548-.333-2.085-.998-.534-.67-.8-1.652-.8-2.947 0-1.308.271-2.296.813-2.966.543-.675 1.251-1.012 2.126-1.012.365 0 .686.05.964.15.278.101.517.235.718.404.205.168.378.357.52.567h.068c-.028-.146-.062-.36-.103-.643a6.981 6.981 0 01-.054-.881v-2.448h2.091V120h-1.6l-.403-.991h-.088a2.577 2.577 0 01-.5.574 2.23 2.23 0 01-.704.403 2.78 2.78 0 01-.963.151zm.731-1.661c.57 0 .97-.169 1.203-.506.237-.342.362-.855.376-1.538v-.226c0-.743-.114-1.31-.342-1.702-.228-.397-.651-.595-1.271-.595-.46 0-.82.198-1.08.595-.26.396-.39.968-.39 1.716 0 .747.13 1.31.39 1.688.264.378.635.568 1.114.568zm12.933-2.311c0 .638-.086 1.203-.26 1.695-.168.493-.416.91-.745 1.251a3.123 3.123 0 01-1.175.766 4.33 4.33 0 01-1.545.26 4.11 4.11 0 01-1.484-.26 3.285 3.285 0 01-1.169-.766 3.556 3.556 0 01-.765-1.251c-.178-.492-.267-1.057-.267-1.695 0-.848.15-1.565.451-2.153a3.1 3.1 0 011.285-1.34c.556-.305 1.22-.458 1.99-.458.715 0 1.349.153 1.9.458.556.305.991.752 1.306 1.34.319.588.478 1.305.478 2.153zm-5.284 0c0 .501.055.923.164 1.265.11.341.28.599.513.772.232.173.535.26.91.26.368 0 .667-.087.895-.26.232-.173.4-.431.506-.772.109-.342.163-.764.163-1.265 0-.506-.054-.925-.163-1.258-.105-.337-.274-.59-.506-.759-.233-.168-.536-.252-.91-.252-.551 0-.952.189-1.203.567-.246.378-.369.946-.369 1.702zm9.372-6.802v2.475c0 .287-.01.572-.027.854a7.21 7.21 0 01-.055.657h.082c.2-.315.474-.581.82-.8.347-.223.796-.335 1.347-.335.857 0 1.552.335 2.085 1.005.533.67.8 1.652.8 2.946 0 .87-.123 1.602-.37 2.194-.245.588-.59 1.033-1.032 1.333-.442.297-.954.445-1.538.445-.56 0-1.002-.101-1.326-.301a3.051 3.051 0 01-.786-.677h-.144l-.348.841h-1.593v-10.637h2.085zm1.497 4.519c-.365 0-.654.075-.868.225-.214.151-.372.376-.472.677-.096.301-.148.681-.157 1.142v.225c0 .743.11 1.313.328 1.709.219.392.618.588 1.196.588.429 0 .768-.198 1.019-.594.255-.397.383-.969.383-1.716 0-.748-.128-1.311-.383-1.689-.255-.378-.604-.567-1.046-.567zm8.709-1.668c.706 0 1.315.137 1.825.41.51.269.905.661 1.183 1.176.278.515.417 1.144.417 1.887v1.011h-4.929c.023.588.198 1.051.526 1.388.333.333.793.499 1.381.499.488 0 .934-.05 1.34-.15a6.849 6.849 0 001.251-.452v1.614a4.974 4.974 0 01-1.19.41c-.41.086-.909.13-1.497.13-.765 0-1.444-.142-2.037-.424a3.162 3.162 0 01-1.387-1.292c-.333-.579-.499-1.308-.499-2.188 0-.893.15-1.636.451-2.228.305-.597.729-1.044 1.271-1.34.543-.301 1.174-.451 1.894-.451zm.013 1.483c-.405 0-.742.13-1.011.39-.265.26-.417.668-.458 1.224h2.925a2.062 2.062 0 00-.17-.828 1.289 1.289 0 00-.479-.574c-.21-.141-.478-.212-.807-.212zM49.674 139v-9.994h2.12V139h-2.12zm6.836 0h-2.085v-10.637h2.085V139zm4.56 0h-2.086v-10.637h2.085V139zm9.487-7.643V139h-1.6l-.28-.978h-.11c-.163.26-.368.472-.614.636a2.692 2.692 0 01-.814.363 3.653 3.653 0 01-.923.116c-.546 0-1.023-.096-1.428-.287a2.126 2.126 0 01-.95-.91c-.224-.41-.336-.943-.336-1.599v-4.984h2.086v4.464c0 .547.097.96.293 1.238.196.278.508.417.937.417.424 0 .756-.096.998-.288.242-.195.41-.48.506-.854.1-.378.15-.839.15-1.381v-3.596h2.085zm7.8 5.373c0 .52-.123.96-.37 1.32-.241.355-.603.626-1.086.813-.483.183-1.085.274-1.805.274-.533 0-.991-.034-1.374-.103a5.607 5.607 0 01-1.148-.342v-1.722a8.32 8.32 0 001.332.465 5.35 5.35 0 001.258.177c.406 0 .695-.059.868-.177a.56.56 0 00.267-.479.568.568 0 00-.11-.342c-.068-.105-.218-.221-.45-.348a11.137 11.137 0 00-1.094-.513 7.273 7.273 0 01-1.183-.608 2.068 2.068 0 01-.683-.725c-.146-.283-.22-.64-.22-1.073 0-.707.274-1.238.821-1.593.552-.36 1.288-.54 2.208-.54.474 0 .925.048 1.354.143a6.67 6.67 0 011.333.458l-.63 1.504a10.724 10.724 0 00-1.072-.403 3.364 3.364 0 00-1.019-.157c-.305 0-.535.041-.69.123a.4.4 0 00-.233.376.51.51 0 00.116.328c.082.096.237.203.465.321.233.114.572.262 1.019.445.433.177.809.364 1.128.56.319.192.565.431.738.718.173.282.26.649.26 1.1zm5.126.746c.228 0 .45-.023.663-.069.22-.045.436-.102.65-.171v1.552c-.223.1-.501.182-.834.246a5.255 5.255 0 01-1.08.103 3.28 3.28 0 01-1.23-.219 1.75 1.75 0 01-.855-.772c-.205-.37-.308-.882-.308-1.539v-3.684h-.998v-.882l1.149-.697.601-1.614h1.333v1.627h2.14v1.566h-2.14v3.684c0 .292.082.511.246.657.169.141.39.212.663.212zm7.41-6.262c.105 0 .226.007.363.02.14.009.255.023.341.041l-.157 1.955a1.31 1.31 0 00-.294-.047 2.89 2.89 0 00-1.107.082c-.25.068-.476.18-.677.335-.2.15-.36.351-.478.601-.114.246-.171.549-.171.909V139h-2.085v-7.643h1.579l.307 1.286h.103c.15-.26.337-.497.56-.711.228-.219.486-.392.773-.52.292-.132.606-.198.943-.198zm5.503-.014c1.025 0 1.811.224 2.358.67.547.447.82 1.126.82 2.037V139H98.12l-.404-1.039h-.054a3.887 3.887 0 01-.67.67 2.3 2.3 0 01-.787.383 4.098 4.098 0 01-1.08.123c-.45 0-.856-.087-1.216-.26a1.934 1.934 0 01-.841-.793c-.205-.36-.308-.816-.308-1.367 0-.811.285-1.408.855-1.791.57-.388 1.424-.602 2.563-.643l1.326-.041v-.335c0-.401-.105-.695-.314-.882-.21-.186-.501-.28-.875-.28-.37 0-.731.053-1.087.157-.356.105-.71.237-1.066.397l-.69-1.408a5.888 5.888 0 011.36-.506 6.603 6.603 0 011.565-.185zm1.107 4.259l-.806.027c-.675.019-1.144.139-1.409.363-.26.223-.39.517-.39.881 0 .319.094.547.281.684.187.132.43.198.732.198.446 0 .822-.132 1.127-.396.31-.265.465-.64.465-1.128v-.629zm7.725 2.017c.228 0 .449-.023.663-.069.219-.045.435-.102.649-.171v1.552c-.223.1-.501.182-.834.246a5.253 5.253 0 01-1.08.103 3.28 3.28 0 01-1.23-.219 1.753 1.753 0 01-.855-.772c-.205-.37-.307-.882-.307-1.539v-3.684h-.998v-.882l1.148-.697.602-1.614h1.333v1.627h2.139v1.566h-2.139v3.684c0 .292.082.511.246.657.168.141.389.212.663.212zm10.089-2.311c0 .638-.086 1.203-.26 1.695-.168.493-.416.91-.745 1.251a3.118 3.118 0 01-1.175.766 4.33 4.33 0 01-1.545.26 4.112 4.112 0 01-1.484-.26 3.294 3.294 0 01-1.169-.766 3.552 3.552 0 01-.765-1.251c-.178-.492-.267-1.057-.267-1.695 0-.848.15-1.565.451-2.153a3.095 3.095 0 011.285-1.34c.556-.305 1.22-.458 1.99-.458.715 0 1.349.153 1.9.458.556.305.991.752 1.306 1.34.319.588.478 1.305.478 2.153zm-5.284 0c0 .501.055.923.164 1.265.11.341.28.599.513.772.232.173.535.26.909.26.369 0 .668-.087.896-.26.232-.173.401-.431.505-.772.11-.342.164-.764.164-1.265 0-.506-.054-.925-.164-1.258-.104-.337-.273-.59-.505-.759-.233-.168-.536-.252-.91-.252-.551 0-.952.189-1.203.567-.246.378-.369.946-.369 1.702zm11.553-3.951c.104 0 .225.007.362.02.141.009.255.023.342.041l-.158 1.955a1.301 1.301 0 00-.294-.047 2.888 2.888 0 00-1.107.082c-.251.068-.476.18-.677.335-.2.15-.36.351-.478.601-.114.246-.171.549-.171.909V139h-2.085v-7.643h1.579l.308 1.286h.102c.151-.26.337-.497.561-.711.228-.219.485-.392.772-.52.292-.132.606-.198.944-.198z" fill="#828282"/><path d="M7.415 228.621c-.63.491-1.275.505-1.933.041-.657-.464-.877-1.078-.657-1.842l2.343-7.571-5.962-4.216c-.657-.464-.856-1.078-.595-1.842.26-.764.787-1.146 1.582-1.146h7.36l2.384-7.858c.137-.382.35-.676.638-.881A1.57 1.57 0 0113.5 203c.329 0 .637.102.924.306.288.205.5.499.638.881l2.385 7.858h7.359c.795 0 1.323.382 1.584 1.146.26.764.06 1.378-.597 1.842l-5.962 4.216 2.344 7.571c.219.764 0 1.378-.658 1.842-.658.464-1.302.45-1.933-.041l-6.084-4.625-6.085 4.625zm36 0c-.63.491-1.275.505-1.933.041-.657-.464-.877-1.078-.657-1.842l2.343-7.571-5.962-4.216c-.657-.464-.856-1.078-.595-1.842.26-.764.787-1.146 1.582-1.146h7.36l2.384-7.858c.137-.382.35-.676.638-.881A1.57 1.57 0 0149.5 203c.328 0 .637.102.924.306.288.205.5.499.638.881l2.385 7.858h7.359c.795 0 1.323.382 1.584 1.146.26.764.06 1.378-.597 1.842l-5.962 4.216 2.344 7.571c.219.764 0 1.378-.658 1.842-.658.464-1.302.45-1.933-.041l-6.084-4.625-6.085 4.625zm36 0c-.63.491-1.275.505-1.933.041-.657-.464-.877-1.078-.657-1.842l2.343-7.571-5.962-4.216c-.657-.464-.856-1.078-.595-1.842.26-.764.787-1.146 1.582-1.146h7.36l2.384-7.858c.137-.382.35-.676.638-.881A1.57 1.57 0 0185.5 203c.329 0 .637.102.924.306.288.205.5.499.638.881l2.385 7.858h7.359c.795 0 1.323.382 1.584 1.146.26.764.06 1.378-.597 1.842l-5.962 4.216 2.344 7.571c.219.764 0 1.378-.658 1.842-.658.464-1.302.45-1.933-.041l-6.084-4.625-6.085 4.625z" fill="#070707"/><path d="M115.415 228.621c-.631.491-1.275.505-1.933.041-.657-.464-.877-1.078-.657-1.842l2.343-7.571-5.962-4.216c-.657-.464-.856-1.078-.595-1.842.26-.764.787-1.146 1.582-1.146h7.36l2.384-7.858c.137-.382.35-.676.638-.881a1.57 1.57 0 01.925-.306c.328 0 .637.102.924.306.288.205.501.499.638.881l2.385 7.858h7.359c.795 0 1.323.382 1.584 1.146.259.764.06 1.378-.597 1.842l-5.962 4.216 2.344 7.571c.219.764 0 1.378-.658 1.842-.658.464-1.302.45-1.933-.041l-6.084-4.625-6.085 4.625zm36 0c-.631.491-1.275.505-1.933.041-.657-.464-.877-1.078-.657-1.842l2.343-7.571-5.962-4.216c-.657-.464-.856-1.078-.595-1.842.26-.764.787-1.146 1.582-1.146h7.36l2.384-7.858c.137-.382.35-.676.638-.881a1.57 1.57 0 01.925-.306c.328 0 .637.102.924.306.288.205.501.499.638.881l2.385 7.858h7.359c.795 0 1.323.382 1.584 1.146.259.764.06 1.378-.597 1.842l-5.962 4.216 2.344 7.571c.219.764 0 1.378-.658 1.842-.658.464-1.302.45-1.933-.041l-6.084-4.625-6.085 4.625z" fill="#E5E5E5"/></svg>