<svg width="171" height="230" fill="none" xmlns="http://www.w3.org/2000/svg"><path d="M72.167 80c7.36 0 13.333-5.974 13.333-13.334V53.333H72.167c-7.36 0-13.334 5.973-13.334 13.333S64.807 80 72.167 80z" fill="#0ACF83"/><path d="M58.833 40c0-7.36 5.974-13.333 13.334-13.333H85.5v26.667H72.167c-7.36 0-13.334-5.974-13.334-13.334z" fill="#A259FF"/><path d="M58.833 13.333C58.833 5.973 64.807 0 72.167 0H85.5v26.667H72.167c-7.36 0-13.334-5.974-13.334-13.334z" fill="#F24E1E"/><path d="M85.5 0h13.333c7.36 0 13.334 5.973 13.334 13.333s-5.974 13.334-13.334 13.334H85.5V0z" fill="#FF7262"/><path d="M112.167 40c0 7.36-5.974 13.334-13.334 13.334C91.473 53.334 85.5 47.36 85.5 40c0-7.36 5.973-13.333 13.333-13.333S112.167 32.64 112.167 40z" fill="#1ABCFE"/><path d="M67.235 120H65.15v-9.994h5.728v1.736h-3.643v2.577h3.39v1.73h-3.39V120zm7.8-7.643V120H72.95v-7.643h2.084zm-1.04-2.994c.31 0 .577.073.8.219.224.141.335.408.335.8 0 .387-.111.656-.335.806-.223.146-.49.219-.8.219a1.44 1.44 0 01-.806-.219c-.219-.15-.328-.419-.328-.806 0-.392.109-.659.328-.8a1.44 1.44 0 01.806-.219zm5.75 14c-1.067 0-1.883-.187-2.448-.56-.56-.369-.84-.889-.84-1.559 0-.46.143-.845.43-1.155.287-.31.708-.531 1.264-.663a1.398 1.398 0 01-.56-.445c-.16-.209-.24-.43-.24-.663 0-.291.085-.533.254-.724.168-.196.412-.388.73-.574a2.08 2.08 0 01-.956-.834c-.233-.383-.349-.834-.349-1.354 0-.556.121-1.028.363-1.415.246-.392.601-.69 1.066-.896.47-.205 1.039-.307 1.709-.307.141 0 .305.009.492.027a10.105 10.105 0 01.834.116h2.666v1.06l-1.196.308c.11.168.191.348.246.54.055.191.082.394.082.608 0 .82-.287 1.461-.861 1.921-.57.456-1.363.684-2.38.684-.24-.014-.469-.032-.683-.055a.957.957 0 00-.24.26.547.547 0 00-.081.287c0 .1.04.184.123.253.087.063.214.114.383.15.173.032.387.048.642.048h1.3c.838 0 1.476.18 1.913.54.442.36.663.889.663 1.586 0 .893-.373 1.586-1.12 2.078-.744.492-1.812.738-3.207.738zm.088-1.36c.497 0 .923-.048 1.278-.144.36-.091.636-.223.828-.396a.785.785 0 00.287-.609.62.62 0 00-.171-.458c-.11-.109-.278-.186-.506-.232a4.41 4.41 0 00-.862-.068h-1.08c-.255 0-.485.041-.69.123-.2.082-.36.196-.478.342a.814.814 0 00-.178.519c0 .287.136.513.41.677.278.164.665.246 1.162.246zm.335-5.797c.392 0 .679-.121.861-.362.183-.242.274-.57.274-.985 0-.46-.096-.804-.287-1.032-.187-.232-.47-.348-.848-.348-.383 0-.67.116-.861.348-.192.228-.288.572-.288 1.032 0 .415.094.743.28.985.192.241.482.362.869.362zm14.512-3.992c.866 0 1.52.223 1.962.67.447.442.67 1.153.67 2.133V120H95.22v-4.464c0-.547-.093-.959-.28-1.237-.187-.278-.476-.417-.868-.417-.551 0-.943.198-1.176.595-.232.391-.348.954-.348 1.688V120h-2.085v-4.464c0-.364-.041-.67-.123-.916-.083-.246-.208-.431-.376-.554-.169-.123-.385-.184-.65-.184-.387 0-.692.098-.916.294-.219.191-.376.476-.471.854-.092.374-.137.832-.137 1.374V120h-2.085v-7.643h1.593l.28.978h.116c.155-.264.349-.479.581-.643a2.55 2.55 0 01.78-.362c.282-.077.57-.116.86-.116.561 0 1.035.091 1.423.273.392.183.692.465.902.848h.184c.228-.392.55-.677.964-.855.42-.177.85-.266 1.292-.266zm8.19-.014c1.025 0 1.811.224 2.358.67.547.447.82 1.126.82 2.037V120h-1.456l-.403-1.039h-.055a3.887 3.887 0 01-.67.67c-.228.173-.49.301-.786.383a4.095 4.095 0 01-1.08.123c-.451 0-.857-.087-1.217-.26a1.935 1.935 0 01-.84-.793c-.206-.36-.308-.816-.308-1.367 0-.811.285-1.408.854-1.791.57-.388 1.424-.602 2.564-.643l1.326-.041v-.335c0-.401-.105-.695-.314-.882-.21-.186-.502-.28-.875-.28-.37 0-.732.053-1.087.157a8.39 8.39 0 00-1.067.397l-.69-1.408a5.88 5.88 0 011.36-.506 6.606 6.606 0 011.566-.185zm1.107 4.259l-.807.027c-.674.019-1.144.139-1.408.363-.26.223-.39.517-.39.881 0 .319.094.547.281.684.187.132.43.198.731.198.447 0 .823-.132 1.128-.396.31-.265.465-.64.465-1.128v-.629z" fill="#828282"/><path d="M7.415 229.621c-.63.491-1.275.505-1.933.041-.657-.464-.877-1.078-.657-1.842l2.343-7.571-5.962-4.216c-.657-.464-.856-1.078-.595-1.842.26-.764.787-1.146 1.582-1.146h7.36l2.384-7.858c.137-.382.35-.676.638-.881A1.57 1.57 0 0113.5 204c.329 0 .637.102.924.306.288.205.5.499.638.881l2.385 7.858h7.359c.795 0 1.323.382 1.584 1.146.26.764.06 1.378-.597 1.842l-5.962 4.216 2.344 7.571c.219.764 0 1.378-.658 1.842-.658.464-1.302.45-1.933-.041l-6.084-4.625-6.085 4.625zm36 0c-.63.491-1.275.505-1.933.041-.657-.464-.877-1.078-.657-1.842l2.343-7.571-5.962-4.216c-.657-.464-.856-1.078-.595-1.842.26-.764.787-1.146 1.582-1.146h7.36l2.384-7.858c.137-.382.35-.676.638-.881A1.57 1.57 0 0149.5 204c.328 0 .637.102.924.306.288.205.5.499.638.881l2.385 7.858h7.359c.795 0 1.323.382 1.584 1.146.26.764.06 1.378-.597 1.842l-5.962 4.216 2.344 7.571c.219.764 0 1.378-.658 1.842-.658.464-1.302.45-1.933-.041l-6.084-4.625-6.085 4.625zm36 0c-.63.491-1.275.505-1.933.041-.657-.464-.877-1.078-.657-1.842l2.343-7.571-5.962-4.216c-.657-.464-.856-1.078-.595-1.842.26-.764.787-1.146 1.582-1.146h7.36l2.384-7.858c.137-.382.35-.676.638-.881A1.57 1.57 0 0185.5 204c.329 0 .637.102.924.306.288.205.5.499.638.881l2.385 7.858h7.359c.795 0 1.323.382 1.584 1.146.26.764.06 1.378-.597 1.842l-5.962 4.216 2.344 7.571c.219.764 0 1.378-.658 1.842-.658.464-1.302.45-1.933-.041l-6.084-4.625-6.085 4.625zm36 0c-.631.491-1.275.505-1.933.041-.657-.464-.877-1.078-.657-1.842l2.343-7.571-5.962-4.216c-.657-.464-.856-1.078-.595-1.842.26-.764.787-1.146 1.582-1.146h7.36l2.384-7.858c.137-.382.35-.676.638-.881a1.57 1.57 0 01.925-.306c.328 0 .637.102.924.306.288.205.501.499.638.881l2.385 7.858h7.359c.795 0 1.323.382 1.584 1.146.259.764.06 1.378-.597 1.842l-5.962 4.216 2.344 7.571c.219.764 0 1.378-.658 1.842-.658.464-1.302.45-1.933-.041l-6.084-4.625-6.085 4.625zm36 0c-.631.491-1.275.505-1.933.041-.657-.464-.877-1.078-.657-1.842l2.343-7.571-5.962-4.216c-.657-.464-.856-1.078-.595-1.842.26-.764.787-1.146 1.582-1.146h7.36l2.384-7.858c.137-.382.35-.676.638-.881a1.57 1.57 0 01.925-.306c.328 0 .637.102.924.306.288.205.501.499.638.881l2.385 7.858h7.359c.795 0 1.323.382 1.584 1.146.259.764.06 1.378-.597 1.842l-5.962 4.216 2.344 7.571c.219.764 0 1.378-.658 1.842-.658.464-1.302.45-1.933-.041l-6.084-4.625-6.085 4.625z" fill="#070707"/></svg>