<svg width="171" height="230" fill="none" xmlns="http://www.w3.org/2000/svg"><path d="M125.5 0h-80v80h80V0z" fill="#87BCF6"/><path d="M118.796 6.704H52.205v66.591h66.591V6.705z" fill="#252653"/><path fill-rule="evenodd" clip-rule="evenodd" d="M104.812 31.452c-5.924-3.006-16.123-1.55-16.123 6.293 0 5.841 4.017 8.14 8.928 10.07 6.978 2.741.196 7.921-8.323 2.564 0 0-.305-.15-.455 0-.15.151-.15.302-.15.458v5.628c2.978 1.534 5.2 2.314 8.638 2.278 11.088-.115 12.686-10.798 6.788-14.907-1.07-.749-3.934-2.242-4.839-2.59-4.688-1.8-4.29-4.359-2.802-5.649 1.644-1.43 6.204.734 8.121 1.94 1.163.723 1.355-.176 1.35-.967l-.016-3.74c0-.89-.305-.962-1.117-1.378zm-34.24 9.341v-13.7c0-.067.237-.301.299-.301 5.769-.297 9.051.837 9.346 7.037.336 7.115-5.593 7.266-9.646 7.266v-.302zm-6.959-19.026v36.83h6.958v-11.87c8.55.615 16.263-2.47 16.263-12.414 0-4.01-1.24-8.047-4.182-10.486-4.11-3.412-13.714-2.653-19.039-2.06z" fill="#87BCF6"/><path d="M70.154 120l-.725-2.379h-3.643L65.06 120h-2.283l3.527-10.035h2.591L72.437 120h-2.283zm-1.23-4.156l-.725-2.324a25.642 25.642 0 00-.185-.595 62.273 62.273 0 00-.225-.745 18.917 18.917 0 01-.178-.663 70.859 70.859 0 01-.574 2.003l-.718 2.324h2.604zm7.314 4.293c-.853 0-1.548-.333-2.085-.998-.534-.67-.8-1.652-.8-2.947 0-1.308.271-2.296.813-2.966.543-.675 1.251-1.012 2.126-1.012.365 0 .686.05.964.15.278.101.517.235.718.404.205.168.378.357.52.567h.068c-.028-.146-.062-.36-.103-.643a6.981 6.981 0 01-.054-.881v-2.448h2.091V120h-1.6l-.403-.991h-.088a2.577 2.577 0 01-.5.574 2.23 2.23 0 01-.704.403 2.78 2.78 0 01-.963.151zm.731-1.661c.57 0 .97-.169 1.203-.506.237-.342.362-.855.376-1.538v-.226c0-.743-.114-1.31-.342-1.702-.228-.397-.651-.595-1.271-.595-.46 0-.82.198-1.08.595-.26.396-.39.968-.39 1.716 0 .747.13 1.31.39 1.688.264.378.635.568 1.114.568zm12.933-2.311c0 .638-.086 1.203-.26 1.695-.168.493-.416.91-.745 1.251a3.123 3.123 0 01-1.175.766 4.33 4.33 0 01-1.545.26 4.11 4.11 0 01-1.484-.26 3.285 3.285 0 01-1.169-.766 3.556 3.556 0 01-.765-1.251c-.178-.492-.267-1.057-.267-1.695 0-.848.15-1.565.451-2.153a3.1 3.1 0 011.285-1.34c.556-.305 1.22-.458 1.99-.458.715 0 1.349.153 1.9.458.556.305.991.752 1.306 1.34.319.588.478 1.305.478 2.153zm-5.284 0c0 .501.055.923.164 1.265.11.341.28.599.513.772.232.173.535.26.91.26.368 0 .667-.087.895-.26.232-.173.4-.431.506-.772.109-.342.163-.764.163-1.265 0-.506-.054-.925-.163-1.258-.105-.337-.274-.59-.506-.759-.233-.168-.536-.252-.91-.252-.551 0-.952.189-1.203.567-.246.378-.369.946-.369 1.702zm9.372-6.802v2.475c0 .287-.01.572-.027.854a7.21 7.21 0 01-.055.657h.082c.2-.315.474-.581.82-.8.347-.223.796-.335 1.347-.335.857 0 1.552.335 2.085 1.005.533.67.8 1.652.8 2.946 0 .87-.123 1.602-.37 2.194-.245.588-.59 1.033-1.032 1.333-.442.297-.954.445-1.538.445-.56 0-1.002-.101-1.326-.301a3.051 3.051 0 01-.786-.677h-.144l-.348.841h-1.593v-10.637h2.085zm1.497 4.519c-.365 0-.654.075-.868.225-.214.151-.372.376-.472.677-.096.301-.148.681-.157 1.142v.225c0 .743.11 1.313.328 1.709.219.392.618.588 1.196.588.429 0 .768-.198 1.019-.594.255-.397.383-.969.383-1.716 0-.748-.128-1.311-.383-1.689-.255-.378-.604-.567-1.046-.567zm8.709-1.668c.706 0 1.315.137 1.825.41.51.269.905.661 1.183 1.176.278.515.417 1.144.417 1.887v1.011h-4.929c.023.588.198 1.051.526 1.388.333.333.793.499 1.381.499.488 0 .934-.05 1.34-.15a6.849 6.849 0 001.251-.452v1.614a4.974 4.974 0 01-1.19.41c-.41.086-.909.13-1.497.13-.765 0-1.444-.142-2.037-.424a3.162 3.162 0 01-1.387-1.292c-.333-.579-.499-1.308-.499-2.188 0-.893.15-1.636.451-2.228.305-.597.729-1.044 1.271-1.34.543-.301 1.174-.451 1.894-.451zm.013 1.483c-.405 0-.742.13-1.011.39-.265.26-.417.668-.458 1.224h2.925a2.062 2.062 0 00-.17-.828 1.289 1.289 0 00-.479-.574c-.21-.141-.478-.212-.807-.212zM51.28 129.006c1.29 0 2.231.278 2.824.834.592.551.888 1.312.888 2.283 0 .438-.066.857-.198 1.258a2.75 2.75 0 01-.65 1.059c-.296.31-.692.556-1.189.739-.496.177-1.11.266-1.839.266h-.909V139h-2.119v-9.994h3.192zm-.109 1.736h-.964v2.967h.697c.397 0 .741-.052 1.033-.157.291-.105.517-.269.676-.492.16-.224.24-.511.24-.862 0-.492-.137-.857-.41-1.094-.274-.241-.698-.362-1.272-.362zm7.909-2.379v2.167c0 .379-.014.739-.041 1.08-.023.342-.041.584-.055.725h.11c.164-.264.357-.479.58-.643.229-.164.48-.284.753-.362.273-.077.567-.116.881-.116.552 0 1.033.098 1.443.294.41.191.729.494.957.909.228.41.342.943.342 1.6V139h-2.085v-4.464c0-.547-.1-.959-.301-1.237-.2-.278-.51-.417-.93-.417-.42 0-.75.098-.991.294-.242.191-.412.476-.513.854-.1.374-.15.832-.15 1.374V139h-2.085v-10.637h2.085zm14.341 6.802c0 .638-.086 1.203-.26 1.695a3.32 3.32 0 01-.744 1.251 3.123 3.123 0 01-1.176.766c-.456.173-.97.26-1.545.26a4.11 4.11 0 01-1.483-.26 3.285 3.285 0 01-1.17-.766 3.556 3.556 0 01-.765-1.251c-.178-.492-.267-1.057-.267-1.695 0-.848.15-1.565.452-2.153a3.09 3.09 0 011.285-1.34c.556-.305 1.219-.458 1.989-.458.715 0 1.349.153 1.9.458.556.305.992.752 1.306 1.34.319.588.478 1.305.478 2.153zm-5.284 0c0 .501.055.923.164 1.265.11.341.28.599.513.772.232.173.536.26.91.26.368 0 .667-.087.895-.26.232-.173.4-.431.506-.772.109-.342.164-.764.164-1.265 0-.506-.055-.925-.164-1.258-.105-.337-.274-.59-.506-.759-.233-.168-.536-.252-.91-.252-.55 0-.952.189-1.203.567-.246.378-.369.946-.369 1.702zm10.507 2.311c.228 0 .449-.023.663-.069a6.17 6.17 0 00.65-.171v1.552c-.224.1-.502.182-.835.246a5.255 5.255 0 01-1.08.103 3.28 3.28 0 01-1.23-.219 1.75 1.75 0 01-.855-.772c-.205-.37-.307-.882-.307-1.539v-3.684h-.998v-.882l1.148-.697.602-1.614h1.333v1.627h2.14v1.566h-2.14v3.684c0 .292.082.511.246.657.168.141.39.212.663.212zm10.09-2.311c0 .638-.087 1.203-.26 1.695-.169.493-.417.91-.746 1.251a3.123 3.123 0 01-1.175.766 4.33 4.33 0 01-1.545.26 4.11 4.11 0 01-1.484-.26 3.286 3.286 0 01-1.168-.766 3.554 3.554 0 01-.766-1.251c-.178-.492-.267-1.057-.267-1.695 0-.848.15-1.565.451-2.153a3.097 3.097 0 011.286-1.34c.556-.305 1.219-.458 1.989-.458.715 0 1.349.153 1.9.458.556.305.991.752 1.306 1.34.319.588.478 1.305.478 2.153zm-5.285 0c0 .501.055.923.164 1.265.11.341.28.599.513.772.232.173.535.26.91.26.368 0 .667-.087.895-.26.232-.173.4-.431.505-.772.11-.342.165-.764.165-1.265 0-.506-.055-.925-.165-1.258-.104-.337-.273-.59-.505-.759-.233-.168-.536-.252-.91-.252-.55 0-.952.189-1.203.567-.246.378-.369.946-.369 1.702zm12.62 1.565c0 .52-.124.96-.37 1.32-.242.355-.604.626-1.087.813-.483.183-1.085.274-1.805.274-.533 0-.99-.034-1.374-.103a5.608 5.608 0 01-1.148-.342v-1.722a8.32 8.32 0 001.333.465c.478.118.898.177 1.258.177.405 0 .695-.059.868-.177a.56.56 0 00.266-.479.568.568 0 00-.109-.342c-.068-.105-.219-.221-.451-.348a11.122 11.122 0 00-1.094-.513 7.273 7.273 0 01-1.182-.608 2.068 2.068 0 01-.684-.725c-.146-.283-.219-.64-.219-1.073 0-.707.274-1.238.82-1.593.552-.36 1.288-.54 2.209-.54.474 0 .925.048 1.353.143.433.096.877.249 1.333.458l-.629 1.504a10.733 10.733 0 00-1.073-.403 3.364 3.364 0 00-1.019-.157c-.305 0-.535.041-.69.123a.4.4 0 00-.233.376c0 .123.04.232.117.328.082.096.237.203.465.321.232.114.572.262 1.018.445.433.177.809.364 1.128.56.32.192.565.431.738.718.173.282.26.649.26 1.1zm3.991-8.367v2.167c0 .379-.014.739-.041 1.08-.023.342-.041.584-.055.725h.11c.164-.264.357-.479.581-.643.228-.164.478-.284.752-.362.273-.077.567-.116.882-.116.551 0 1.032.098 1.442.294.41.191.729.494.957.909.228.41.342.943.342 1.6V139h-2.085v-4.464c0-.547-.1-.959-.301-1.237-.201-.278-.51-.417-.93-.417-.419 0-.749.098-.991.294-.241.191-.412.476-.513.854-.1.374-.15.832-.15 1.374V139h-2.085v-10.637h2.085zm14.342 6.802c0 .638-.087 1.203-.26 1.695-.169.493-.417.91-.745 1.251a3.13 3.13 0 01-1.176.766 4.33 4.33 0 01-1.545.26 4.107 4.107 0 01-1.483-.26 3.276 3.276 0 01-1.169-.766 3.54 3.54 0 01-.766-1.251c-.178-.492-.267-1.057-.267-1.695 0-.848.151-1.565.452-2.153a3.09 3.09 0 011.285-1.34c.556-.305 1.219-.458 1.989-.458.715 0 1.349.153 1.9.458.556.305.992.752 1.306 1.34.319.588.479 1.305.479 2.153zm-5.285 0c0 .501.055.923.164 1.265.11.341.281.599.513.772.233.173.536.26.909.26.369 0 .668-.087.896-.26.232-.173.401-.431.506-.772.109-.342.164-.764.164-1.265 0-.506-.055-.925-.164-1.258-.105-.337-.274-.59-.506-.759-.233-.168-.536-.252-.909-.252-.552 0-.953.189-1.204.567-.246.378-.369.946-.369 1.702zm11.539-3.951c.861 0 1.556.335 2.085 1.005.533.67.8 1.652.8 2.946 0 .866-.125 1.595-.376 2.188-.251.587-.597 1.032-1.039 1.333-.442.3-.95.451-1.525.451-.369 0-.685-.046-.95-.137a2.454 2.454 0 01-.677-.362 3.286 3.286 0 01-.485-.479h-.109a5.567 5.567 0 01.109 1.121v3.083h-2.085v-11.006h1.695l.294.992h.096c.137-.205.303-.395.499-.568a2.19 2.19 0 01.704-.41c.278-.105.6-.157.964-.157zm-.67 1.668c-.364 0-.654.075-.868.225-.214.151-.371.376-.472.677-.095.301-.148.681-.157 1.142v.225c0 .493.046.91.137 1.251.096.342.253.602.472.78.223.177.528.266.916.266.319 0 .581-.089.786-.266.205-.178.357-.438.458-.78.105-.346.157-.768.157-1.264 0-.748-.116-1.311-.349-1.689-.232-.378-.592-.567-1.08-.567z" fill="#828282"/><path d="M7.415 228.621c-.63.491-1.275.505-1.933.041-.657-.464-.877-1.078-.657-1.842l2.343-7.571-5.962-4.216c-.657-.464-.856-1.078-.595-1.842.26-.764.787-1.146 1.582-1.146h7.36l2.384-7.858c.137-.382.35-.676.638-.881A1.57 1.57 0 0113.5 203c.329 0 .637.102.924.306.288.205.5.499.638.881l2.385 7.858h7.359c.795 0 1.323.382 1.584 1.146.26.764.06 1.378-.597 1.842l-5.962 4.216 2.344 7.571c.219.764 0 1.378-.658 1.842-.658.464-1.302.45-1.933-.041l-6.084-4.625-6.085 4.625zm36 0c-.63.491-1.275.505-1.933.041-.657-.464-.877-1.078-.657-1.842l2.343-7.571-5.962-4.216c-.657-.464-.856-1.078-.595-1.842.26-.764.787-1.146 1.582-1.146h7.36l2.384-7.858c.137-.382.35-.676.638-.881A1.57 1.57 0 0149.5 203c.328 0 .637.102.924.306.288.205.5.499.638.881l2.385 7.858h7.359c.795 0 1.323.382 1.584 1.146.26.764.06 1.378-.597 1.842l-5.962 4.216 2.344 7.571c.219.764 0 1.378-.658 1.842-.658.464-1.302.45-1.933-.041l-6.084-4.625-6.085 4.625z" fill="#070707"/><path d="M79.415 228.621c-.63.491-1.275.505-1.933.041-.657-.464-.877-1.078-.657-1.842l2.343-7.571-5.962-4.216c-.657-.464-.856-1.078-.595-1.842.26-.764.787-1.146 1.582-1.146h7.36l2.384-7.858c.137-.382.35-.676.638-.881A1.57 1.57 0 0185.5 203c.329 0 .637.102.924.306.288.205.5.499.638.881l2.385 7.858h7.359c.795 0 1.323.382 1.584 1.146.26.764.06 1.378-.597 1.842l-5.962 4.216 2.344 7.571c.219.764 0 1.378-.658 1.842-.658.464-1.302.45-1.933-.041l-6.084-4.625-6.085 4.625zm36 0c-.631.491-1.275.505-1.933.041-.657-.464-.877-1.078-.657-1.842l2.343-7.571-5.962-4.216c-.657-.464-.856-1.078-.595-1.842.26-.764.787-1.146 1.582-1.146h7.36l2.384-7.858c.137-.382.35-.676.638-.881a1.57 1.57 0 01.925-.306c.328 0 .637.102.924.306.288.205.501.499.638.881l2.385 7.858h7.359c.795 0 1.323.382 1.584 1.146.259.764.06 1.378-.597 1.842l-5.962 4.216 2.344 7.571c.219.764 0 1.378-.658 1.842-.658.464-1.302.45-1.933-.041l-6.084-4.625-6.085 4.625zm36 0c-.631.491-1.275.505-1.933.041-.657-.464-.877-1.078-.657-1.842l2.343-7.571-5.962-4.216c-.657-.464-.856-1.078-.595-1.842.26-.764.787-1.146 1.582-1.146h7.36l2.384-7.858c.137-.382.35-.676.638-.881a1.57 1.57 0 01.925-.306c.328 0 .637.102.924.306.288.205.501.499.638.881l2.385 7.858h7.359c.795 0 1.323.382 1.584 1.146.259.764.06 1.378-.597 1.842l-5.962 4.216 2.344 7.571c.219.764 0 1.378-.658 1.842-.658.464-1.302.45-1.933-.041l-6.084-4.625-6.085 4.625z" fill="#E5E5E5"/></svg>